<svg xmlns="http://www.w3.org/2000/svg" version="1.1" xmlns:xlink="http://www.w3.org/1999/xlink" width="512" height="512" x="0" y="0" viewBox="0 0 512 512" style="enable-background:new 0 0 512 512" xml:space="preserve" class=""><g><circle cx="448.326" cy="190.871" r="39.674" fill="#cd7618" opacity="1" data-original="#f9b534" class=""></circle><path fill="#fcded5" d="M162.524 355.24s-28.819 12.463-41.246 29.824c-8.5 11.87-24.319 34.22-24.319 34.22s-14.454-3.984-19.369 3.832c-5.926 9.427 9.294 43.2 16.448 57.93A12.349 12.349 0 0 0 105.183 488a12.4 12.4 0 0 0 11.973-15.638l-6.692-24.762 90.992-70.7 14.986-97.406c-25.531-2.752-56.552-8.836-70.472-22.273z" opacity="1" data-original="#fcded5" class=""></path><path fill="#09e518" d="M152.329 360.331c-9.528 5.209-23.4 14.039-31.051 24.733-8.5 11.87-24.319 34.22-24.319 34.22s-14.454-3.984-19.369 3.832c-5.926 9.427 9.294 43.2 16.448 57.93A12.349 12.349 0 0 0 105.183 488a12.4 12.4 0 0 0 11.973-15.638l-6.692-24.762 72.6-56.412z" opacity="1" data-original="#f0534a" class=""></path><path fill="#fcfeff" d="M155.37 312.877 210.056 321l6.386-41.507c-25.531-2.752-56.552-8.836-70.472-22.273z" opacity="1" data-original="#3d8dcc" class=""></path><path fill="#484a50" d="M104.894 442.062a21.779 21.779 0 0 1-6.135-11.894l-1.8-10.884s-14.454-3.984-19.369 3.832c-5.926 9.427 9.294 43.2 16.448 57.93A12.349 12.349 0 0 0 105.183 488a12.4 12.4 0 0 0 11.973-15.638l-6.692-24.762z" opacity="1" data-original="#484a50" class=""></path><path fill="#2c7ebe" d="M216.442 279.491c-25.531-2.752-56.552-8.836-70.472-22.273l2.6 15.373c17.731 10.394 43.843 15.455 66.183 17.9z" opacity="1" data-original="#2c7ebe" class=""></path><path fill="#fcded5" d="M395.3 289.018a11.621 11.621 0 0 0-11.614 1.337l-30.147 22.522-76.255-61.577-61.706-27.995 11.831-54.061 37.063 13.469a22.841 22.841 0 0 0 26.6-34.423L275.9 126.244l-12.569-18.262-43.938-13.494a18.175 18.175 0 0 1-9.023 2.537h-.31a19.154 19.154 0 0 1-11.541-4.489l-57.347-4.8-47.323 19.6-54.28-7.816a13.625 13.625 0 0 0-4.333 26.9l55.923 9.98 49.492-8.557 4.108 81.311s-15.09 27.858-6.079 43.659C157.264 285.4 256 284.766 256 284.766a117.963 117.963 0 0 0 33.813 30.858c16.268 9.76 34.58 16.722 47.955 21.66 5.25 1.939 7.459 17.643 17.683 17.784 9.019.124 32.342-31.176 44.73-48.764a11.584 11.584 0 0 0-4.881-17.286zm-152.411-152.67 6.877 12.78-12.721-4.141z" opacity="1" data-original="#fcded5" class=""></path><path fill="#09e518" d="m263.331 107.982-43.938-13.494a18.175 18.175 0 0 1-9.023 2.537h-.31a19.154 19.154 0 0 1-11.541-4.489l-57.347-4.8-25.9 10.73v33.759l25.38-4.388 3.606 71.379 73.8 12.755 12.591-57.529 12.24-18.095 33.011-10.1z" opacity="1" data-original="#f0534a" class=""></path><path fill="#e44d44" d="m230.649 154.443 2.4-3.54-27.3-8.887a12.515 12.515 0 0 0-15.8 8.092 12.514 12.514 0 0 0 7.647 15.57l28.343 10.3z" opacity="1" data-original="#e44d44" class=""></path><path fill="#fcded5" d="M239.811 59.818c-.4 20.992-13.769 40.506-29.808 40.2s-28.671-20.3-28.276-41.3 13.665-35.023 29.7-34.721 28.779 14.83 28.384 35.821z" opacity="1" data-original="#fcded5" class=""></path><path fill="#e44d44" d="M219.393 94.488a18.175 18.175 0 0 1-9.023 2.537h-.31a19.154 19.154 0 0 1-11.541-4.489L182.8 91.218c6.648 10.064 16.349 16.6 27.058 16.8h.517c8.01 0 15.584-3.6 21.8-9.613z" opacity="1" data-original="#e44d44" class=""></path><path fill="#fcded5" d="M239.811 59.818c-.4 20.992-13.769 40.506-29.808 40.2s-28.671-20.3-28.276-41.3 13.665-35.023 29.7-34.721 28.779 14.83 28.384 35.821z" opacity="1" data-original="#fcded5" class=""></path><path fill="#fcfeff" d="m215.578 223.306 2.48-11.334-73.8-12.755.5 9.932s-15.09 27.858-6.079 43.659c9.805 17.195 41.92 25.14 70.075 28.81l34.135-45.918z" opacity="1" data-original="#3d8dcc" class=""></path><path fill="#09e518" d="M395.3 289.018a11.621 11.621 0 0 0-11.614 1.337l-30.147 22.522-60.807-49.106-28.332 31.135a119.493 119.493 0 0 0 25.417 20.718c16.268 9.76 34.58 16.722 47.955 21.66a6.364 6.364 0 0 1 2.685 2.324c3.664 4.92 6.676 15.345 15 15.46 9.019.124 32.342-31.176 44.73-48.764a11.584 11.584 0 0 0-4.887-17.286z" opacity="1" data-original="#f0534a" class=""></path><path fill="#484a50" d="M395.3 289.018a11.621 11.621 0 0 0-11.614 1.337l-30.147 22.522v8.523a16.487 16.487 0 0 1-6.393 13.035l-6.687 5.169c3.664 4.92 6.676 15.345 15 15.46 9.019.124 32.342-31.176 44.73-48.764a11.584 11.584 0 0 0-4.889-17.282z" opacity="1" data-original="#484a50" class=""></path><path fill="#fcd3c4" d="M291.075 148.291 275.9 126.244l-33.011 10.1 6.877 12.78-42.7-13.9a12.513 12.513 0 0 0-15.794 8.092 12.515 12.515 0 0 0 7.646 15.57l65.553 23.822a22.841 22.841 0 0 0 26.6-34.423z" opacity="1" data-original="#fcd3c4" class=""></path><path d="M448.326 143.2A47.674 47.674 0 1 0 496 190.871a47.728 47.728 0 0 0-47.674-47.671zm0 79.348A31.674 31.674 0 1 1 480 190.871a31.71 31.71 0 0 1-31.674 31.674zM398.5 281.689a19.66 19.66 0 0 0-19.609 2.257l-25.168 18.8-71.413-57.672a7.983 7.983 0 0 0-1.722-1.061l-55.813-25.322 5.468-24.981a8 8 0 0 0-15.63-3.421l-2.735 12.494-40.6-7.018a8 8 0 0 0-2.724 15.767l39.9 6.9-.692 3.164a8 8 0 0 0 4.509 9l18.28 8.293-25.41 34.181c-27-4.055-52.373-11.706-59.512-24.225-5.523-9.686 2.813-29.66 6.164-35.885a7.994 7.994 0 0 0 .956-4.214l-4.108-81.311a8 8 0 0 0-9.353-7.479l-16.017 2.769v-18.913l19.168-7.941 21.57 1.8a8 8 0 0 0 1.334-15.945l-23.5-1.965a8 8 0 0 0-3.729.581L92.816 99.109l-52.106-7.5a21.625 21.625 0 0 0-6.878 42.691l55.923 9.971a7.986 7.986 0 0 0 2.767.007l40.595-7.018 3.545 70.17a102.816 102.816 0 0 0-5.993 15.352c-4.153 14.034-3.8 25.469 1.061 33.989a37.341 37.341 0 0 0 7.61 9.23l14.289 84.607c-9.58 4.813-28.73 15.653-38.856 29.8-6.206 8.669-16.418 23.068-21.411 30.113a39.3 39.3 0 0 0-4.208-.253h-.164c-10.551 0-15.706 4.667-18.173 8.592-2.449 3.9-8.955 14.247 16.025 65.683a20.4 20.4 0 0 0 38.037-14.267l-5.3-19.628 86.79-67.433a8.005 8.005 0 0 0 3-5.1l10.959-71.236a8 8 0 0 0-15.814-2.433l-1.149 7.472-41.069-6.1-4.846-28.7q17.7 7.725 45.716 11.805a399.062 399.062 0 0 0 48.81 3.811 128.407 128.407 0 0 0 33.724 29.749c17.3 10.382 37.19 17.832 48.4 21.973.013.017.024.036.038.054.58.817 1.448 2.379 2.059 3.481 3.1 5.581 8.283 14.922 19.147 15.072h.536c4.923 0 15.316-1.717 50.844-52.162a19.582 19.582 0 0 0-8.22-29.221zM91.181 128.272l-54.541-9.724a5.625 5.625 0 0 1 1.789-11.105l54.28 7.816a7.991 7.991 0 0 0 4.2-.528l10.36-4.291v15.051zm17.5 350a4.405 4.405 0 0 1-7.444-.723c-16.386-33.74-17.7-47.6-16.807-50.265.626-.758 2.942-1.105 5.582-1l.857 5.182a29.6 29.6 0 0 0 8.389 16.263l4.046 4.02 6.132 22.692a4.324 4.324 0 0 1-.758 3.833zm2.433-41.312-.578-.575a13.693 13.693 0 0 1-3.881-7.524l-1.264-7.639c4.46-6.3 15.741-22.207 22.4-31.5 5.534-7.731 15.073-14.54 23.2-19.405l20.031 20.1zm89.816-109.233-6.893 44.8-10.289 7.994-17.933-18a8 8 0 0 0 4.6-8.62l-5.32-31.5zm55.022-50.963c-9.53.06-20.822-.4-32.513-1.489l22.024-29.63 27.591 12.518 8.047 6.5-16.542 18.179c-1.251-1.584-1.917-2.541-1.941-2.577a8 8 0 0 0-6.615-3.5zm19.494 17.886 18.125-19.918 51.962 41.968v4.7a8.544 8.544 0 0 1-3.291 6.71l-2.006 1.553c-10.593-3.911-29.965-11.1-46.307-20.9a108.671 108.671 0 0 1-18.486-14.111zm118.2 7.045C370.9 333.987 359 345.206 355.163 346.986c-1.29-.491-2.905-3.087-4.21-5.382l1.085-.839a24.651 24.651 0 0 0 9.5-19.361v-4.517l26.935-20.123a3.655 3.655 0 0 1 5.689 1.947 3.48 3.48 0 0 1-.522 2.989z" fill="#000000" opacity="1" data-original="#000000" class=""></path><path d="M240.583 101a8 8 0 0 0 5.3 10l12.438 3.82 4.8 6.976-22.575 6.91a8 8 0 0 0-5.637 7.181l-25.367-8.257a20.515 20.515 0 0 0-13.356 38.789l65.558 23.824a30.841 30.841 0 0 0 35.92-46.479l-27.744-40.317a7.994 7.994 0 0 0-4.241-3.112l-15.1-4.638a8 8 0 0 0-9.996 5.303zm44.1 68.371a14.783 14.783 0 0 1-17.474 5.828l-65.554-23.822a4.515 4.515 0 0 1 2.94-8.537l42.7 13.9a7.995 7.995 0 0 0 5.433-15.03l19.912-6.095 11.85 17.217a14.787 14.787 0 0 1 .189 16.535zM209.853 108.021h.5c10.012 0 19.791-5.6 26.9-15.432a58.727 58.727 0 0 0 10.557-32.62c.223-11.878-3.268-22.844-9.83-30.877a34.557 34.557 0 0 0-26.4-13.086c-21.09-.382-37.391 17.9-37.855 42.57-.494 26.424 16.049 49.067 36.128 49.445zM210.918 32h.364a18.8 18.8 0 0 1 14.306 7.21c4.166 5.1 6.376 12.365 6.224 20.455a42.36 42.36 0 0 1-7.521 23.549c-2.416 3.343-7.442 8.959-14.138 8.806-10.817-.2-20.744-16.312-20.428-33.147C190.02 43.233 198.908 32 210.918 32z" fill="#000000" opacity="1" data-original="#000000" class=""></path></g></svg>